{"title":"Night at the Museum Secret of the Tomb 2014 BDRiP MURD3R","uid":11721088,"size":848733240,"categoryP":"video","categoryS":"movies","magnet":"?xt=urn:btih:a76c77f7a5575d7f888ae1899dfa850160a8d3c3&amp;dn=Night+at+the+Museum+Secret+of+the+Tomb+2014+BDRiP+MURD3R&amp;tr=udp%3A%2F%2Ftracker.openbittorrent.com%3A80&amp;tr=udp%3A%2F%2Fopen.demonii.com%3A1337&amp;tr=udp%3A%2F%2Ftracker.coppersurfer.tk%3A6969&amp;tr=udp%3A%2F%2Fexodus.desync.com%3A6969","seeders":5,"leechers":0,"uploader":".BONE.","files":11,"time":1424824568,"description":"Night at the Museum Secret of the Tomb 2014 BDRiP MP4 MURD3R.mp4\nFormat : MPEG-4\nFormat profile : Base Media\nCodec ID : isom\nFile size : 806 MiB\nDuration : 1h 37mn\nOverall bit rate : 1 152 Kbps\nWriting application : Lavf54.63.104\n\nVideo\nID : 1\nFormat : AVC\nFormat/Info : Advanced Video Codec\nFormat profile : &lt;a class=&quot;__cf_email__&quot; href=&quot;/cdn-cgi/l/email-protection&quot; data-cfemail=&quot;f9b1909e91b9b5cad7c8&quot;&gt;[email&amp;#160;protected]&lt;/a&gt;&lt;script cf-hash='f9e31' type=&quot;text/javascript&quot;&gt;\n/* &lt;![CDATA[ */!function(){try{var t=&quot;currentScript&quot;in document?document.currentScript:function(){for(var t=document.getElementsByTagName(&quot;script&quot;),e=t.length;e--;)if(t[e].getAttribute(&quot;cf-hash&quot;))return t[e]}();if(t&amp;&amp;t.previousSibling){var e,r,n,i,c=t.previousSibling,a=c.getAttribute(&quot;data-cfemail&quot;);if(a){for(e=&quot;&quot;,r=parseInt(a.substr(0,2),16),n=2;a.length-n;n+=2)i=parseInt(a.substr(n,2),16)^r,e+=String.fromCharCode(i);e=document.createTextNode(e),c.parentNode.replaceChild(e,c)}}}catch(u){}}();/* ]]&gt; */&lt;/script&gt;\nFormat settings, CABAC : Yes\nFormat settings, ReFrames : 5 frames\nCodec ID : avc1\nCodec ID/Info : Advanced Video Coding\nDuration : 1h 37mn\nDuration_FirstFrame : 125ms\nBit rate : 984 Kbps\nWidth : 720 pixels\nHeight : 388 pixels\nDisplay aspect ratio : 1.85:1\nFrame rate mode : Constant\nFrame rate : 23.976 fps\nColor space : YUV\nChroma subsampling : 4:2:0\nBit depth : 8 bits\nScan type : Progressive\nBits/(Pixel*Frame) : 0.147\nStream size : 689 MiB (85%)\n\n\nAudio\nID : 2\nFormat : AAC\nFormat/Info : Advanced Audio Codec\nFormat profile : LC\nCodec ID : 40\nDuration : 1h 37mn\nBit rate mode : Constant\nBit rate : 160 Kbps\nChannel(s) : 2 channels\nChannel positions : Front: L R\nSampling rate : 48.0 KHz\nCompression mode : Lossy\nStream size : 112 MiB (14%)\n &lt;a href=&quot;\nhttp://s20.postimage.org/mvijjll31/vlcsnap_2015_02_24_23h12m11s85.png&quot; rel=&quot;nofollow&quot; target=&quot;_NEW&quot;&gt;\nhttp://s20.postimage.org/mvijjll31/vlcsnap_2015_02_24_23h12m11s85.png&lt;/a&gt; &lt;a href=&quot;\nhttp://s20.postimage.org/88hl1xmgt/vlcsnap_2015_02_24_23h11m55s174.png&quot; rel=&quot;nofollow&quot; target=&quot;_NEW&quot;&gt;\nhttp://s20.postimage.org/88hl1xmgt/vlcsnap_2015_02_24_23h11m55s174.png&lt;/a&gt; &lt;a href=&quot;\nhttp://s20.postimage.org/xjmaifv25/vlcsnap_2015_02_24_23h12m20s174.png&quot; rel=&quot;nofollow&quot; target=&quot;_NEW&quot;&gt;\nhttp://s20.postimage.org/xjmaifv25/vlcsnap_2015_02_24_23h12m20s174.png&lt;/a&gt; &lt;a href=&quot;\nhttp://s20.postimage.org/o1mjie9dp/vlcsnap_2015_02_24_23h12m24s215.png&quot; rel=&quot;nofollow&quot; target=&quot;_NEW&quot;&gt;\nhttp://s20.postimage.org/o1mjie9dp/vlcsnap_2015_02_24_23h12m24s215.png&lt;/a&gt;","torrent":{"xt":"urn:btih:a76c77f7a5575d7f888ae1899dfa850160a8d3c3","amp;dn":"Night+at+the+Museum+Secret+of+the+Tomb+2014+BDRiP+MURD3R","amp;tr":["udp%3A%2F%2Ftracker.openbittorrent.com%3A80","udp%3A%2F%2Fopen.demonii.com%3A1337","udp%3A%2F%2Ftracker.coppersurfer.tk%3A6969","udp%3A%2F%2Fexodus.desync.com%3A6969"],"infoHash":"a76c77f7a5575d7f888ae1899dfa850160a8d3c3","infoHashBuffer":{"type":"Buffer","data":[167,108,119,247,165,87,93,127,136,138,225,137,157,250,133,1,96,168,211,195]},"announce":[],"urlList":[]}}